<?xml version="1.0" standalone="no"?>
<!DOCTYPE svg PUBLIC "-//W3C//DTD SVG 20010904//EN"
 "http://www.w3.org/TR/2001/REC-SVG-20010904/DTD/svg10.dtd">
<svg version="1.0" xmlns="http://www.w3.org/2000/svg"
 width="256.000000pt" height="256.000000pt" viewBox="0 0 256.000000 256.000000"
 preserveAspectRatio="xMidYMid meet">
<metadata>
Created by potrace 1.14, written by Peter Selinger 2001-2017
</metadata>
<g transform="translate(0.000000,256.000000) scale(0.100000,-0.100000)"
fill="#000000" stroke="none">
<path d="M528 2549 c-333 -51 -569 -373 -514 -702 27 -165 133 -324 277 -417
58 -37 165 -80 201 -80 20 0 20 2 21 -77 l1 -57 -35 -8 c-100 -20 -216 -85
-294 -164 -236 -239 -237 -622 -2 -857 243 -242 621 -243 862 -2 77 77 133
171 161 272 l17 62 59 0 c37 -1 60 -5 62 -12 37 -142 87 -237 168 -319 239
-242 619 -244 862 -5 278 275 228 735 -102 946 -56 35 -161 78 -210 85 -13 2
-17 14 -19 47 -3 76 2 86 49 93 80 13 205 83 282 160 126 126 186 277 180 456
-10 279 -225 528 -500 577 -66 11 -200 6 -261 -12 -218 -61 -374 -214 -433
-425 l-15 -55 -63 0 c-34 0 -62 2 -62 5 0 3 -8 31 -19 63 -71 205 -233 361
-427 411 -72 19 -180 25 -246 15z m151 -193 c143 -17 291 -142 335 -283 l7
-23 -195 0 -195 0 -62 -91 c-33 -50 -58 -93 -55 -96 3 -3 118 -5 255 -5 288 0
272 6 221 -95 -68 -135 -196 -221 -344 -230 -181 -12 -330 78 -409 245 -29 61
-32 76 -32 167 0 92 3 105 33 170 64 136 183 225 322 242 25 3 47 7 49 9 2 2
7 2 10 0 3 -2 30 -7 60 -10z m1454 -40 c30 -14 78 -50 107 -78 255 -259 82
-697 -280 -707 -242 -7 -436 184 -429 423 6 208 162 381 364 403 28 3 51 7 53
8 9 8 138 -26 185 -49z m-786 -490 c12 -88 88 -231 167 -310 78 -79 221 -157
314 -170 14 -2 18 -15 20 -64 3 -64 2 -65 -55 -77 -131 -27 -289 -145 -367
-273 -28 -47 -67 -145 -82 -209 -2 -9 -24 -13 -63 -13 -58 0 -61 1 -66 28 -25
117 -103 252 -193 332 -62 56 -189 122 -267 139 l-50 12 3 64 c2 35 7 64 10
63 21 -6 97 18 169 53 150 72 276 224 317 383 8 31 18 61 21 67 4 5 32 9 63 7
53 -3 56 -4 59 -32z m-601 -816 c408 -141 368 -717 -55 -803 -193 -40 -388 71
-466 263 -25 61 -29 193 -9 262 41 138 151 246 288 283 76 20 173 18 242 -5z
m1377 -20 c114 -56 202 -162 227 -275 11 -47 14 -141 7 -175 -20 -89 -65 -172
-121 -224 -66 -61 -129 -93 -221 -112 -78 -17 -203 6 -281 52 -79 47 -163 153
-188 240 -6 21 -4 21 180 22 102 0 187 2 188 4 2 2 31 44 65 93 l62 90 -251 3
c-137 1 -250 5 -250 8 0 20 49 117 79 154 56 71 109 108 198 140 47 16 76 20
149 17 77 -3 100 -8 157 -37z"/>
</g>
</svg>
