<svg viewBox="0 0 2566 818" fill="none" xmlns="http://www.w3.org/2000/svg">
<circle cx="161" cy="287" r="161" fill="black"/>
<circle cx="531" cy="657" r="161" fill="black"/>
<circle cx="161" cy="657" r="161" fill="black"/>
<circle cx="531" cy="287" r="161" fill="black"/>
<circle cx="161" cy="287" r="100" fill="white"/>
<circle cx="531" cy="657" r="100" fill="white"/>
<circle cx="161" cy="652" r="100" fill="white"/>
<circle cx="531" cy="287" r="100" fill="white"/>
<rect x="154" y="257" width="277" height="63" fill="black"/>
<rect x="129" y="585" width="328" height="63" transform="rotate(-90 129 585)" fill="black"/>
<rect x="500" y="688" width="301" height="63" transform="rotate(-90 500 688)" fill="black"/>
<rect x="129" y="627" width="336" height="63" fill="black"/>
<rect x="908" y="627" width="292" height="63" fill="black"/>
<rect x="908" y="448" width="292" height="63" fill="black"/>
<rect x="908" y="257" width="292" height="63" fill="black"/>
<rect x="1331" y="267" width="292" height="63" fill="black"/>
<rect x="1331" y="628" width="292" height="63" fill="black"/>
<rect x="1139" y="690" width="433" height="63" transform="rotate(-90 1139 690)" fill="black"/>
<rect x="1562" y="691" width="424" height="63" transform="rotate(-90 1562 691)" fill="black"/>
<rect x="1331" y="689" width="689" height="63" transform="rotate(-90 1331 689)" fill="black"/>
<rect x="908" y="688" width="192" height="63" transform="rotate(-90 908 688)" fill="black"/>
<rect x="1756" y="633" width="292" height="63" fill="black"/>
<rect x="1756" y="454" width="292" height="63" fill="black"/>
<rect x="1756" y="263" width="292" height="63" fill="black"/>
<rect x="1987" y="696" width="433" height="63" transform="rotate(-90 1987 696)" fill="black"/>
<rect x="1756" y="694" width="192" height="63" transform="rotate(-90 1756 694)" fill="black"/>
<rect x="2333" y="453.352" width="256.528" height="63" transform="rotate(-60 2333 453.352)" fill="black"/>
<rect x="2191.08" y="213.501" width="304.097" height="63" transform="rotate(60 2191.08 213.501)" fill="black"/>
<rect x="2460.98" y="727.948" width="279.955" height="63" transform="rotate(-120 2460.98 727.948)" fill="black"/>
<rect x="2137.67" y="706.288" width="301.795" height="63" transform="rotate(-60 2137.67 706.288)" fill="black"/>
<rect x="2288.24" y="444.926" width="90" height="63" fill="black"/>
<rect x="1991" y="696" width="575" height="122" fill="white"/>
<rect x="1880" width="686" height="263" fill="white"/>
</svg>
