<svg width="1098" height="503" viewBox="0 0 1098 503" fill="none" xmlns="http://www.w3.org/2000/svg">
<g clip-path="url(#clip0_365_6020)">
<path d="M379.947 184.422C379.947 150.555 352.39 123 318.52 123C288.267 123 263.055 144.977 258.008 173.805H245.26C240.22 144.977 215.008 123 184.756 123C150.885 123 123.328 150.555 123.328 184.422C123.328 214.8 145.495 240.091 174.501 244.982V257.709C145.495 262.613 123.328 287.905 123.328 318.282C123.328 352.15 150.885 379.705 184.756 379.705C215.325 379.705 240.746 357.263 245.415 327.991H257.86C262.529 357.263 287.951 379.705 318.52 379.705C352.39 379.705 379.947 352.15 379.947 318.282C379.947 287.716 357.504 262.297 328.229 257.628V245.083C357.504 240.415 379.947 214.995 379.947 184.429V184.422ZM318.52 142.416C341.684 142.416 360.529 161.26 360.529 184.422C360.529 207.585 341.684 226.428 318.52 226.428C295.355 226.428 276.517 207.591 276.51 184.436V184.409C276.517 161.253 295.362 142.416 318.52 142.416ZM142.746 184.422C142.746 161.26 161.591 142.416 184.756 142.416C204.254 142.416 220.688 155.769 225.404 173.805H186.339L173.214 193.221H225.829C221.773 212.173 204.901 226.428 184.756 226.428C161.591 226.428 142.746 207.585 142.746 184.422ZM184.756 360.282C161.591 360.282 142.746 341.438 142.746 318.276C142.746 295.113 160.843 277.044 183.361 276.303H186.157C208.674 277.044 226.772 295.578 226.772 318.276C226.772 340.973 207.927 360.282 184.762 360.282H184.756ZM193.919 257.534V245.158C220.593 241.149 241.703 219.934 245.557 193.214H257.725C261.545 219.752 282.399 240.859 308.811 245.07V257.615C282.702 261.778 262.024 282.454 257.86 308.561H245.415C241.224 282.272 220.29 261.488 193.919 257.527V257.534ZM360.529 318.276C360.529 341.438 341.684 360.282 318.52 360.282C298.697 360.282 282.048 346.477 277.655 327.984H315.211L328.229 308.567H277.655C281.947 290.512 297.922 276.937 317.125 276.303H319.921C342.439 277.044 360.536 295.578 360.536 318.276H360.529Z" fill="white"/>
<path d="M544.928 208.716C533.986 198.483 519.298 192.204 503.168 192.204C469.432 192.204 441.989 219.644 441.989 253.377C441.989 287.11 469.432 314.55 503.168 314.55C519.298 314.55 533.986 308.271 544.928 298.037V310.993H564.346V193.477H544.928V208.716ZM503.168 295.134C480.145 295.134 461.407 276.404 461.407 253.377C461.407 230.349 480.138 211.62 503.168 211.62C526.197 211.62 544.928 230.349 544.928 253.377C544.928 276.404 526.197 295.134 503.168 295.134Z" fill="white"/>
<path d="M816.283 208.716C805.341 198.483 790.652 192.204 774.522 192.204C740.787 192.204 713.344 219.644 713.344 253.377C713.344 287.11 740.787 314.55 774.522 314.55C790.652 314.55 805.341 308.271 816.283 298.037V310.993H835.701V193.477H816.283V208.716ZM774.522 295.134C751.499 295.134 732.762 276.404 732.762 253.377C732.762 230.349 751.493 211.62 774.522 211.62C797.552 211.62 816.283 230.349 816.283 253.377C816.283 276.404 797.552 295.134 774.522 295.134Z" fill="white"/>
<path d="M642.497 189.92C626.367 189.92 611.679 196.199 600.736 206.433V143.265H581.318V310.993H600.736V295.754C611.679 305.987 626.367 312.266 642.497 312.266C676.233 312.266 703.676 284.826 703.676 251.093C703.676 217.36 676.233 189.92 642.497 189.92ZM642.497 292.85C619.474 292.85 600.736 274.121 600.736 251.093C600.736 228.066 619.467 209.336 642.497 209.336C665.526 209.336 684.257 228.066 684.257 251.093C684.257 274.121 665.526 292.85 642.497 292.85Z" fill="white"/>
<path d="M950.019 310.993H973.803L932.178 252.171L971.573 193.598L971.391 193.477H948.254L915.212 242.604H905.678L872.636 193.477H849.499L849.317 193.598L888.713 252.171L847.087 310.993H870.871L905.53 262.021H915.36L950.019 310.993Z" fill="white"/>
</g>
<defs>
<clipPath id="clip0_365_6020">
<rect width="873.344" height="256.705" fill="white" transform="translate(123.328 123)"/>
</clipPath>
</defs>
</svg>
