<?xml version="1.0" standalone="no"?>
<!DOCTYPE svg PUBLIC "-//W3C//DTD SVG 20010904//EN"
 "http://www.w3.org/TR/2001/REC-SVG-20010904/DTD/svg10.dtd">
<svg version="1.0" xmlns="http://www.w3.org/2000/svg"
 width="2566.000000pt" height="818.000000pt" viewBox="0 0 2566.000000 818.000000"
 preserveAspectRatio="xMidYMid meet">

<g transform="translate(0.000000,818.000000) scale(0.100000,-0.100000)"
fill="#000000" stroke="none">
<path d="M13310 4725 l0 -3455 1470 0 1470 0 0 2120 0 2120 -1155 0 -1155 0 0
1335 0 1335 -315 0 -315 0 0 -3455z m2310 -1335 l0 -1490 -840 0 -840 0 0
1490 0 1490 840 0 840 0 0 -1490z"/>
<path d="M1495 6909 c-433 -28 -844 -242 -1124 -584 -169 -207 -280 -441 -338
-715 -28 -131 -25 -489 5 -623 125 -561 506 -997 1043 -1191 52 -18 120 -39
152 -46 l57 -11 0 -279 0 -278 -32 -7 c-83 -16 -239 -70 -331 -115 -464 -221
-786 -635 -894 -1150 -28 -131 -25 -489 5 -623 125 -561 506 -996 1043 -1191
319 -115 708 -117 1042 -6 518 174 933 633 1051 1163 l6 27 280 0 280 0 5 -27
c19 -86 83 -262 129 -354 124 -247 285 -435 509 -595 478 -342 1113 -392 1638
-130 444 222 751 619 861 1113 30 134 33 491 5 623 -45 215 -124 407 -237 579
-34 52 -67 100 -73 106 -7 7 -39 44 -72 82 -33 37 -91 95 -128 128 -38 33 -74
65 -81 71 -36 33 -187 126 -286 175 -103 51 -257 106 -347 124 l-33 7 0 278 0
278 52 11 c147 32 374 131 509 221 359 242 596 592 691 1017 30 134 33 491 5
623 -45 215 -124 407 -237 579 -34 52 -67 100 -73 106 -7 7 -39 44 -72 82 -33
37 -91 95 -128 128 -38 33 -74 65 -81 71 -36 33 -187 126 -286 175 -249 124
-516 175 -812 157 -490 -29 -942 -294 -1228 -718 -94 -139 -190 -366 -227
-535 l-9 -40 -274 0 -274 0 -9 40 c-21 97 -72 245 -117 338 -43 90 -151 268
-183 302 -7 7 -39 44 -72 82 -33 37 -91 95 -128 128 -38 33 -74 65 -81 71 -36
33 -187 126 -286 175 -179 89 -377 144 -555 154 -49 3 -103 7 -120 8 -16 2
-79 0 -140 -4z m355 -623 c30 -9 66 -19 80 -21 14 -3 70 -28 125 -55 197 -97
359 -259 454 -455 27 -55 52 -110 56 -122 l6 -23 -640 0 -641 0 0 -626 0 -625
-22 6 c-82 24 -283 141 -295 171 -3 8 -11 14 -18 14 -19 0 -128 122 -181 202
-46 69 -109 196 -118 239 -3 13 -13 49 -23 79 -13 43 -17 96 -17 235 -1 157 2
191 22 265 31 116 108 269 186 366 57 72 94 107 213 202 37 29 221 120 255
126 15 3 32 7 38 11 58 36 411 44 520 11z m3700 0 c30 -9 66 -19 80 -21 57
-12 231 -109 310 -172 159 -127 290 -328 342 -523 19 -71 23 -111 23 -245 0
-88 -4 -182 -9 -210 -20 -117 -100 -306 -162 -382 -13 -15 -31 -39 -41 -53
-21 -29 -117 -125 -159 -159 -92 -76 -235 -148 -365 -183 -114 -31 -394 -34
-504 -4 -141 38 -302 118 -374 186 -18 16 -37 30 -41 30 -15 0 -130 133 -176
202 -46 69 -109 196 -118 239 -3 13 -13 49 -23 79 -13 43 -17 96 -17 235 -1
157 2 191 22 265 31 116 108 269 186 366 57 72 94 107 213 202 37 29 221 120
255 126 15 3 32 7 38 11 58 36 411 44 520 11z m-2990 -1313 c0 -17 -101 -210
-124 -238 -14 -16 -33 -41 -43 -55 -21 -29 -117 -125 -159 -159 -66 -54 -170
-114 -264 -151 l-50 -20 0 315 0 315 320 0 c176 0 320 -3 320 -7z m1185 -20
c19 -86 83 -262 129 -354 124 -247 285 -435 509 -595 159 -114 398 -224 555
-254 l62 -13 0 -277 0 -278 -37 -6 c-79 -14 -238 -69 -336 -116 -265 -126
-489 -321 -657 -570 -94 -139 -190 -366 -227 -535 l-9 -40 -274 0 -274 0 -9
40 c-21 97 -72 245 -117 338 -43 90 -151 268 -183 302 -7 7 -39 44 -72 82 -33
37 -91 95 -128 128 -38 33 -74 65 -81 71 -36 33 -187 126 -286 175 -107 53
-266 109 -352 125 l-38 6 0 278 0 278 43 7 c131 22 390 132 528 225 346 234
596 594 683 983 l6 27 280 0 280 0 5 -27z m-1652 -2411 c149 -80 290 -215 378
-364 44 -72 93 -185 104 -235 l7 -33 -646 0 -646 0 0 -315 0 -315 625 0 c344
0 625 -3 625 -6 0 -13 -84 -163 -106 -191 -13 -15 -31 -39 -41 -53 -21 -29
-117 -125 -159 -159 -92 -76 -235 -148 -365 -183 -114 -31 -394 -34 -504 -4
-141 38 -302 118 -374 186 -18 16 -37 30 -41 30 -15 0 -130 133 -176 202 -46
69 -109 196 -118 239 -3 13 -13 49 -23 79 -13 43 -17 96 -17 235 -1 157 2 191
22 265 31 116 108 269 186 366 57 72 94 107 213 202 33 26 222 122 241 122 9
0 12 -35 12 -140 l0 -140 315 0 315 0 0 145 0 145 53 -21 c28 -11 83 -37 120
-57z m3222 -1242 l315 0 0 630 c0 497 3 630 13 630 6 0 57 -22 112 -50 198
-98 358 -258 455 -455 76 -154 94 -238 95 -430 0 -88 -4 -182 -9 -210 -20
-117 -100 -306 -162 -382 -13 -15 -31 -39 -41 -53 -21 -29 -117 -125 -159
-159 -92 -76 -235 -148 -365 -183 -114 -31 -394 -34 -504 -4 -141 38 -302 118
-374 186 -18 16 -37 30 -41 30 -15 0 -130 133 -176 202 -38 57 -114 205 -114
222 0 3 65 6 145 6 l145 0 0 315 0 315 -151 0 -150 0 6 23 c4 12 29 67 55 122
74 151 152 243 317 375 33 26 124 77 192 106 l76 33 3 -634 2 -635 315 0z"/>
<path d="M9080 5295 l0 -315 1155 0 1155 0 0 -640 0 -640 -1155 0 -1155 0 0
-1210 0 -1210 1470 0 1470 0 0 2165 0 2165 -1470 0 -1470 0 0 -315z m2310
-2805 l0 -580 -840 0 -840 0 0 580 0 580 840 0 840 0 0 -580z"/>
<path d="M17560 5235 l0 -315 1155 0 1155 0 0 -640 0 -640 -1155 0 -1155 0 0
-1210 0 -1210 1470 0 1470 0 0 2165 0 2165 -1470 0 -1470 0 0 -315z m2310
-2805 l0 -580 -840 0 -840 0 0 580 0 580 840 0 840 0 0 -580z"/>
<path d="M21502 5508 c13 -24 290 -505 616 -1069 l592 -1025 -626 -1085 c-345
-596 -628 -1090 -631 -1096 -4 -10 70 -13 349 -13 l354 0 54 93 c30 50 62 106
71 122 9 17 99 172 199 345 100 173 194 335 208 360 13 25 47 83 75 130 27 47
60 103 72 125 71 126 362 627 387 668 27 42 34 47 67 47 21 0 44 -6 53 -12 8
-7 257 -433 553 -945 l538 -933 353 0 c195 0 354 2 354 5 0 2 -75 134 -166
292 -91 159 -176 306 -189 328 -12 22 -45 78 -72 125 -28 47 -62 105 -75 130
-14 25 -108 187 -208 360 -100 173 -192 333 -205 355 -12 22 -45 78 -72 125
-28 47 -61 105 -75 130 -14 25 -57 100 -97 167 -39 67 -74 128 -77 136 -2 7
16 49 42 93 26 43 57 97 69 119 13 22 105 182 205 355 100 173 194 335 208
360 13 25 47 83 75 130 27 47 60 103 72 125 13 22 105 182 205 355 100 173
193 333 205 355 13 22 46 81 75 130 29 50 61 105 71 123 l19 32 -358 0 -357 0
-525 -911 -525 -910 -74 3 -74 3 -109 189 c-60 103 -119 207 -132 230 -13 22
-47 82 -76 131 -29 50 -62 108 -75 130 -12 22 -105 182 -205 355 -100 173
-192 333 -205 355 -12 22 -45 78 -72 125 -28 47 -61 105 -75 130 -14 25 -42
73 -62 108 l-37 62 -355 0 -356 0 24 -42z"/>
</g>
</svg>
